<svg width="960" height="960" viewBox="0 0 960 960" fill="none" xmlns="http://www.w3.org/2000/svg">
  <g opacity="0.09" stroke="#B78E4D" stroke-width="0.8">
    <path d="M480 92C693 92 868 267 868 480C868 693 693 868 480 868C267 868 92 693 92 480C92 267 267 92 480 92Z"/>
    <path d="M480 164C651 164 792 305 792 476C792 647 651 788 480 788C309 788 168 647 168 476C168 305 309 164 480 164Z"/>
    <path d="M480 236C610 236 716 342 716 472C716 602 610 708 480 708C350 708 244 602 244 472C244 342 350 236 480 236Z"/>
    <path d="M480 308C571 308 644 381 644 472C644 563 571 636 480 636C389 636 316 563 316 472C316 381 389 308 480 308Z"/>
  </g>
  <g opacity="0.08" stroke="#1F3A30" stroke-width="0.7">
    <path d="M480 40V920M40 480H920"/>
    <path d="M182 182L778 778M778 182L182 778"/>
  </g>
  <g opacity="0.06" stroke="#7A403B" stroke-width="0.8">
    <path d="M479 130L512 244L628 278L542 356L564 474L479 418L394 474L416 356L330 278L446 244L479 130Z"/>
  </g>
</svg>
