<svg width="820" height="820" viewBox="0 0 820 820" fill="none" xmlns="http://www.w3.org/2000/svg">
  <g opacity="0.14" stroke="#7C4C46" stroke-width="0.8">
    <circle cx="410" cy="410" r="380"/>
    <circle cx="410" cy="410" r="320"/>
    <circle cx="410" cy="410" r="250"/>
    <circle cx="410" cy="410" r="175"/>
    <path d="M410 30V790M30 410H790M137.8 137.8L682.2 682.2M682.2 137.8L137.8 682.2"/>
  </g>
  <g opacity="0.12" stroke="#254336" stroke-width="0.7">
    <path d="M410 116C573.5 116 706 248.5 706 412C706 575.5 573.5 708 410 708C246.5 708 114 575.5 114 412C114 248.5 246.5 116 410 116Z"/>
    <path d="M410 176C540.5 176 646 281.5 646 412C646 542.5 540.5 648 410 648C279.5 648 174 542.5 174 412C174 281.5 279.5 176 410 176Z"/>
    <path d="M410 236C507.5 236 586 314.5 586 412C586 509.5 507.5 588 410 588C312.5 588 234 509.5 234 412C234 314.5 312.5 236 410 236Z"/>
  </g>
</svg>
